<svg xmlns="http://www.w3.org/2000/svg" xmlns:xlink="http://www.w3.org/1999/xlink" width="790.602" height="223.745" viewBox="0 0 790.602 223.745">
  <defs>
    <linearGradient id="linear-gradient" y1="0.5" x2="1" y2="0.5" gradientUnits="objectBoundingBox">
      <stop offset="0" stop-color="#212c56"/>
      <stop offset="1" stop-color="#24b0e6"/>
    </linearGradient>
    <linearGradient id="linear-gradient-2" y1="0.5" x2="1" y2="0.5" gradientUnits="objectBoundingBox">
      <stop offset="0" stop-color="#fff"/>
      <stop offset="0.13" stop-color="#7a7a7b"/>
      <stop offset="0.45" stop-color="#fff"/>
      <stop offset="0.89" stop-color="#7a7a7b"/>
      <stop offset="1" stop-color="#fff"/>
    </linearGradient>
    <linearGradient id="linear-gradient-7" x1="0" y1="0.5" x2="1" y2="0.5" xlink:href="#linear-gradient"/>
    <linearGradient id="linear-gradient-8" x1="0" y1="0.5" x2="1" y2="0.5" xlink:href="#linear-gradient"/>
    <linearGradient id="linear-gradient-9" x1="0" y1="0.5" x2="1" y2="0.5" xlink:href="#linear-gradient"/>
    <linearGradient id="linear-gradient-10" x1="0" y1="0.5" x2="1" y2="0.5" xlink:href="#linear-gradient"/>
    <linearGradient id="linear-gradient-13" x1="0" y1="0.5" x2="1" y2="0.5" xlink:href="#linear-gradient"/>
    <linearGradient id="linear-gradient-14" x1="-0.001" y1="0.5" x2="1" y2="0.5" xlink:href="#linear-gradient-2"/>
    <linearGradient id="linear-gradient-15" x1="0" y1="0.5" x2="1" y2="0.5" xlink:href="#linear-gradient-2"/>
    <linearGradient id="linear-gradient-16" x1="0" y1="0.5" x2="1" y2="0.5" xlink:href="#linear-gradient-2"/>
    <linearGradient id="linear-gradient-17" x1="0" y1="0.5" x2="1" y2="0.5" xlink:href="#linear-gradient-2"/>
    <linearGradient id="linear-gradient-18" x1="0" y1="0.5" x2="1" y2="0.5" xlink:href="#linear-gradient-2"/>
    <linearGradient id="linear-gradient-19" x1="-0.001" y1="0.5" x2="1" y2="0.5" xlink:href="#linear-gradient-2"/>
  </defs>
  <g id="Layer_1" data-name="Layer 1" transform="translate(-0.008 -0.005)">
    <g id="Group_972" data-name="Group 972">
      <g id="Group_969" data-name="Group 969">
        <path id="Path_2073" data-name="Path 2073" d="M.98,189.62c6.16,0,11.37-.11,16.58.06,1.93.06,5.35.48,5.52,1.28,3.2,15.01,15.09,8.55,23.11,8.65,45.88.57,91.77.28,137.65.28h14.02V175.43H.92v-74.3H197.19c3.78-10.97.78-17.16-8.28-22.76-23.25-14.37-46-29.58-68.52-45.08-6.31-4.34-10.6-4.52-16.94-.16C82.26,47.72,60.14,61.01,39.28,76.04,27.56,84.48,15.6,86.83,1.29,84.41-1.28,77.09-.33,71.65,7.32,66.72Q55.98,35.355,103.94,2.88c6.09-4.11,10.23-3.63,16.02.27,31.7,21.31,63.83,42,95.37,63.55,4.07,2.78,7.59,9.13,7.95,14.08,1.05,14.35.37,28.83.37,44.46H25.63v24.61H222.77v73.9H.98Z" fill="url(#linear-gradient)"/>
        <g id="Group_968" data-name="Group 968">
          <rect id="Rectangle_144" data-name="Rectangle 144" width="13.96" height="13.96" transform="translate(92.2 72.5)" fill="url(#linear-gradient-2)"/>
          <rect id="Rectangle_145" data-name="Rectangle 145" width="13.96" height="13.96" transform="translate(114.8 72.5)" fill="url(#linear-gradient-2)"/>
          <rect id="Rectangle_146" data-name="Rectangle 146" width="13.96" height="13.96" transform="translate(92.2 54.48)" fill="url(#linear-gradient-2)"/>
          <rect id="Rectangle_147" data-name="Rectangle 147" width="13.96" height="13.96" transform="translate(114.8 54.48)" fill="url(#linear-gradient-2)"/>
        </g>
        <rect id="Rectangle_148" data-name="Rectangle 148" width="3.21" height="194.48" transform="translate(244.76 29.27)" fill="url(#linear-gradient-2)"/>
      </g>
      <g id="Group_970" data-name="Group 970">
        <path id="Path_2074" data-name="Path 2074" d="M346.26,106.54c0,17.88-14.83,31.33-38.82,31.33S269.53,123.04,268,121.21l7.34-13.14c8.56,9.48,20.33,15.13,32.4,15.13,15.44,0,23.85-6.27,23.85-16.05,0-8.25-9.32-13.3-23.39-15.74-28.58-4.89-36.68-15.13-36.68-28.89,0-16.66,12.99-29.81,36.99-29.81,4.28,0,20.48.46,33.17,12.23l-7.03,13.3a36.452,36.452,0,0,0-26.44-10.85c-14.06,0-22.01,5.35-22.01,14.52,0,7.95,7.03,11.62,23.23,14.83,24.46,4.74,36.84,12.53,36.84,29.81Z" fill="url(#linear-gradient-7)"/>
        <path id="Path_2075" data-name="Path 2075" d="M402.37,33.94h14.67V136.66H402.37Zm23.05,102.72V121.99h33.2v14.67Z" fill="url(#linear-gradient-8)"/>
        <path id="Path_2076" data-name="Path 2076" d="M519.08,33.94l34.85,61.14v41.58H539.26V95.08L502.58,33.94h16.51Zm71.53,0-32.16,53.6L550.69,74,574.1,33.94h16.51Z" fill="url(#linear-gradient-9)"/>
        <path id="Path_2077" data-name="Path 2077" d="M676.82,136.66h-15.9l-9.93-22.01h-.05L627.91,63.9l-23.03,50.75h-.05l-9.94,22.01h-15.9L627.9,31.5l48.91,105.16Z" fill="url(#linear-gradient-10)"/>
        <path id="Path_2078" data-name="Path 2078" d="M759.04,66.8c0,19.26-12.84,34.39-34.55,34.39H702.78v35.46H688.11V86.52h36.53c10.7,0,19.72-5.5,19.72-18.8s-9.93-19.11-20.63-19.11H688.11V33.94H719.9c26.75,0,39.13,13.45,39.13,32.86Z" fill="url(#linear-gradient)"/>
        <path id="Path_2079" data-name="Path 2079" d="M775.94,136.66V33.94h14.67V136.66Z" fill="url(#linear-gradient)"/>
        <path id="Path_2080" data-name="Path 2080" d="M364.56,58.74v77.92h14.68V44.35Z" fill="url(#linear-gradient-13)"/>
      </g>
      <g id="Group_971" data-name="Group 971">
        <path id="Path_2081" data-name="Path 2081" d="M265.74,162.75l3.79.12q3.735.12,4.89.12,1.035,0,8.71-.24l.24.21v1.52l-.24.21c-1.4.04-2.47.1-3.23.18a3.755,3.755,0,0,0-1.65.46,2.146,2.146,0,0,0-.68,1.56,27.026,27.026,0,0,0-.17,3.41l-.06,6.98v14.05l.03,5.92a41.64,41.64,0,0,0,.18,4.43,2.894,2.894,0,0,0,.44,1.34,2.268,2.268,0,0,0,1.11.56,24.146,24.146,0,0,0,4.04.35l.24.18v1.52l-.24.24q-.15,0-5.34-.18c-1.44-.04-2.56-.06-3.37-.06q-.945,0-8.68.24l-.24-.24v-1.52l.24-.18a31.781,31.781,0,0,0,3.76-.3,2.762,2.762,0,0,0,1.26-.47,2.455,2.455,0,0,0,.52-1.23,28,28,0,0,0,.23-4.19l.03-6.4V177.29l-.06-5.92c-.02-2.31-.08-3.79-.17-4.46a2.816,2.816,0,0,0-.42-1.34,2.271,2.271,0,0,0-1.11-.55,26.366,26.366,0,0,0-4.04-.33l-.24-.21v-1.52l.24-.21Zm8.89-5.8a3.336,3.336,0,0,1-2.43-.99,3.246,3.246,0,0,1-1-2.41,3.414,3.414,0,0,1,3.43-3.43,3.246,3.246,0,0,1,2.41,1,3.336,3.336,0,0,1,.99,2.43,3.259,3.259,0,0,1-.99,2.41A3.314,3.314,0,0,1,274.63,156.95Z" fill="url(#linear-gradient-14)"/>
        <path id="Path_2082" data-name="Path 2082" d="M345.32,205.84l-.27-.27v-1.4l.27-.24a21.536,21.536,0,0,0,2.96-.21,2.22,2.22,0,0,0,1.43-.61,2.873,2.873,0,0,0,.42-1.37c.07-.63.14-2.04.21-4.25s.11-3.78.11-4.73V168.24a3.82,3.82,0,0,0-.56-2.29,2.439,2.439,0,0,0-1.53-.94,20.389,20.389,0,0,0-3.31-.23l-.24-.24v-1.43l.24-.27q4.185.15,5.49.15,3.06,0,5.04-.15l9.68,12.56,14.23,17.84q2.58,3.255,5.25,6.16V175.91c0-.73-.04-2.28-.11-4.66s-.16-3.88-.26-4.52a2.163,2.163,0,0,0-.53-1.29,2.97,2.97,0,0,0-1.43-.5,21.293,21.293,0,0,0-2.84-.2l-.24-.24v-1.4l.24-.27q2.46.15,7.01.15,4.155,0,6.04-.15l.27.27v1.4l-.24.24a20.4,20.4,0,0,0-3.1.23,1.985,1.985,0,0,0-1.37.65,3.47,3.47,0,0,0-.38,1.34c-.07.59-.14,1.98-.21,4.19s-.11,3.79-.11,4.76v14.41l.03,8.35q.06,4.095.12,8.22a48.447,48.447,0,0,0-5.25-1.27l-2.15-2.55-6.46-7.89-20.58-25.7v23.28c0,.93.04,2.59.11,4.98a39.661,39.661,0,0,0,.26,4.34,2.5,2.5,0,0,0,.39,1.05,2.269,2.269,0,0,0,1.05.53,14.972,14.972,0,0,0,3.32.27l.24.24v1.43l-.24.24a43.331,43.331,0,0,0-5.1-.21q-4.515,0-7.92.21Z" fill="url(#linear-gradient-15)"/>
        <path id="Path_2083" data-name="Path 2083" d="M466.28,206.75a25.414,25.414,0,0,1-10.77-2.25l-.18-.39c.2-1.27.35-4.25.46-8.92l.24-.24h1.49l.24.24a28.206,28.206,0,0,0,.41,4.75,3.864,3.864,0,0,0,1.64,1.82,11.534,11.534,0,0,0,3.67,1.56,18.227,18.227,0,0,0,4.63.61,13.634,13.634,0,0,0,5.78-1.18,9.075,9.075,0,0,0,3.99-3.47,9.542,9.542,0,0,0,1.43-5.14,8.357,8.357,0,0,0-.68-3.49,5.941,5.941,0,0,0-1.91-2.38,8.8,8.8,0,0,0-2.81-1.34c-1.05-.29-2.62-.61-4.7-.96-2.02-.32-3.61-.62-4.75-.88a16.375,16.375,0,0,1-3.41-1.21,9.205,9.205,0,0,1-2.84-2.08,9.342,9.342,0,0,1-1.82-3.1,11.044,11.044,0,0,1-.68-3.93,12.043,12.043,0,0,1,3.95-9.3q3.945-3.63,10.59-3.63a28.454,28.454,0,0,1,5.75.65,23.568,23.568,0,0,1,5.66,1.93l.21.36a40.959,40.959,0,0,0-.82,7.95l-.27.24H479.2l-.24-.21c-.04-2.43-.1-3.96-.18-4.58s-1-1.41-2.76-2.34a12.092,12.092,0,0,0-5.74-1.4,11.414,11.414,0,0,0-4.83,1.03,7.058,7.058,0,0,0-3.4,3.25,9.667,9.667,0,0,0-1.15,4.52,7.113,7.113,0,0,0,.8,3.4,5.606,5.606,0,0,0,2.22,2.28,9.676,9.676,0,0,0,2.81,1.08c.93.19,2.48.45,4.64.77a31.959,31.959,0,0,1,7.81,1.84,8.719,8.719,0,0,1,3.91,3.41,10.389,10.389,0,0,1,1.47,5.64,13.3,13.3,0,0,1-4.51,10.11,18.881,18.881,0,0,1-11.36,4.86l-1.43,3.31a10.149,10.149,0,0,1,1.85-.18,5.83,5.83,0,0,1,3.87,1.18,3.85,3.85,0,0,1,1.41,3.1,4.617,4.617,0,0,1-1.87,3.67,8.53,8.53,0,0,1-5.54,1.55,16.63,16.63,0,0,1-5.49-.88l-.12-.36.73-1.55.33-.15a11.3,11.3,0,0,0,3.76.67,3.425,3.425,0,0,0,2.5-.79,2.4,2.4,0,0,0,.8-1.76,2.067,2.067,0,0,0-.83-1.71,3.552,3.552,0,0,0-2.26-.65,6.261,6.261,0,0,0-1.85.3l-.55-.43,2.28-5.19Z" fill="url(#linear-gradient-16)"/>
        <path id="Path_2084" data-name="Path 2084" d="M545.77,205.87l-.27-.24v-1.58l.27-.24a12.969,12.969,0,0,0,2.85-.23,2.442,2.442,0,0,0,1.14-.79,24.688,24.688,0,0,0,2.02-3.87l3.19-6.92,8.25-18.69q2.34-5.49,4.64-10.99h1.97l12.96,30.47,1.73,4.07c.51,1.15,1.09,2.41,1.74,3.76a11.343,11.343,0,0,0,1.37,2.4,2.586,2.586,0,0,0,.94.56,10.087,10.087,0,0,0,2.5.23l.24.24v1.58l-.24.24c-2.14-.18-4.08-.27-5.8-.27q-5.04.15-10.08.27l-.24-.24v-1.58l.24-.24a24.507,24.507,0,0,0,4.25-.29,1,1,0,0,0,.85-1.05,5.253,5.253,0,0,0-.42-1.76l-3.73-9.26H558.57l-3.31,7.77a9.1,9.1,0,0,0-.88,3.07,1.175,1.175,0,0,0,.82,1.12,14.046,14.046,0,0,0,4.13.39l.27.24v1.58l-.24.24q-3.915-.24-6.86-.24c-2.23,0-4.47.08-6.74.24Zm13.84-17.02h15.36l-7.62-18.3Z" fill="url(#linear-gradient-17)"/>
        <path id="Path_2085" data-name="Path 2085" d="M652.53,205.87l-.27-.24v-1.58l.27-.24a12.969,12.969,0,0,0,2.85-.23,2.442,2.442,0,0,0,1.14-.79,24.688,24.688,0,0,0,2.02-3.87l3.19-6.92,8.25-18.69q2.34-5.49,4.64-10.99h1.97l12.96,30.47,1.73,4.07c.51,1.15,1.09,2.41,1.74,3.76a11.343,11.343,0,0,0,1.37,2.4,2.586,2.586,0,0,0,.94.56,10.087,10.087,0,0,0,2.5.23l.24.24v1.58l-.24.24c-2.14-.18-4.08-.27-5.8-.27q-5.04.15-10.08.27l-.24-.24v-1.58l.24-.24a24.507,24.507,0,0,0,4.25-.29,1,1,0,0,0,.85-1.05,5.253,5.253,0,0,0-.42-1.76l-3.73-9.26H665.33l-3.31,7.77a9.1,9.1,0,0,0-.88,3.07,1.175,1.175,0,0,0,.82,1.12,14.046,14.046,0,0,0,4.13.39l.27.24v1.58l-.24.24q-3.915-.24-6.86-.24c-2.23,0-4.47.08-6.74.24Zm13.84-17.02h15.36l-7.62-18.3Z" fill="url(#linear-gradient-18)"/>
        <path id="Path_2086" data-name="Path 2086" d="M789.98,162.75l.27.27q-.27,2.73-.27,9.53l-.24.24h-1.43l-.24-.27-.33-2.79a25.912,25.912,0,0,0-.38-2.75,1.285,1.285,0,0,0-.44-.73,5.449,5.449,0,0,0-1.97-.38c-1.11-.1-2.36-.15-3.73-.15h-5.74q-.24,6.855-.24,7.92v17.69l.06,5.92c.02,2.29.08,3.77.17,4.45a2.735,2.735,0,0,0,.42,1.34,2.458,2.458,0,0,0,1.11.55,24.4,24.4,0,0,0,4.07.35l.21.18v1.52l-.21.24q-7.77-.24-8.68-.24-.975,0-8.65.24l-.24-.24v-1.52l.24-.18a31.834,31.834,0,0,0,3.78-.3,2.709,2.709,0,0,0,1.24-.47,2.445,2.445,0,0,0,.53-1.23,25.065,25.065,0,0,0,.21-4.19l.06-6.4V173.66q0-.48-.24-7.92H764.8q-2.79,0-4.83.12c-1.36.08-2.14.29-2.35.62a10.953,10.953,0,0,0-.59,3.26l-.3,2.79-.27.27h-1.4l-.24-.24c-.04-4.88-.13-8.05-.27-9.53l.27-.27q5.28.24,17.57.24c8.19,0,14.22-.08,17.6-.24Z" fill="url(#linear-gradient-19)"/>
      </g>
      <path id="Path_2087" data-name="Path 2087" d="M379.24,36.14v-2.2H364.56V49.68Z" fill="url(#linear-gradient-2)"/>
    </g>
  </g>
</svg>
