<svg xmlns="http://www.w3.org/2000/svg" width="233.314" height="66.03" viewBox="0 0 233.314 66.03">
  <g id="Layer_1-2" transform="translate(-0.008 -0.005)">
    <g id="Group_5" data-name="Group 5" transform="translate(0.008 0.005)">
      <g id="Group_2" data-name="Group 2">
        <path id="Path_1" data-name="Path 1" d="M.3,55.962c1.818,0,3.355-.032,4.893.018.57.018,1.579.142,1.629.378.944,4.43,4.453,2.523,6.82,2.553,13.54.168,27.082.083,40.622.083H58.4V51.774H.277V29.848H58.2c1.116-3.237.23-5.064-2.444-6.717C48.894,18.89,42.18,14.4,35.534,9.828c-1.862-1.281-3.128-1.334-5-.047C24.282,14.086,17.754,18.008,11.6,22.443A13.953,13.953,0,0,1,.387,24.914c-.758-2.16-.478-3.766,1.78-5.221Q16.526,10.437,30.68.853c1.8-1.213,3.019-1.071,4.728.08,9.355,6.289,18.837,12.395,28.145,18.754A6.222,6.222,0,0,1,65.9,23.842c.31,4.235.109,8.508.109,13.121H7.57v7.263H65.748V66.034H.3Z" transform="translate(-0.008 -0.005)" fill="#fff"/>
        <g id="Group_1" data-name="Group 1" transform="translate(27.207 16.076)">
          <rect id="Rectangle_2" data-name="Rectangle 2" width="4.12" height="4.12" transform="translate(0 5.318)" fill="#fff"/>
          <rect id="Rectangle_3" data-name="Rectangle 3" width="4.12" height="4.12" transform="translate(6.669 5.318)" fill="#fff"/>
          <rect id="Rectangle_4" data-name="Rectangle 4" width="4.12" height="4.12" fill="#fff"/>
          <rect id="Rectangle_5" data-name="Rectangle 5" width="4.12" height="4.12" transform="translate(6.669)" fill="#fff"/>
        </g>
        <rect id="Rectangle_6" data-name="Rectangle 6" width="0.947" height="57.393" transform="translate(72.229 8.636)" fill="#fff"/>
      </g>
      <g id="Group_3" data-name="Group 3" transform="translate(79.087 9.295)">
        <path id="Path_2" data-name="Path 2" d="M291.1,54.5c0,5.277-4.376,9.246-11.456,9.246A15.909,15.909,0,0,1,268,58.827l2.166-3.878a13.039,13.039,0,0,0,9.562,4.465c4.556,0,7.038-1.85,7.038-4.737,0-2.435-2.75-3.925-6.9-4.645-8.434-1.443-10.825-4.465-10.825-8.526,0-4.917,3.833-8.8,10.916-8.8a14.652,14.652,0,0,1,9.789,3.609l-2.075,3.925a10.757,10.757,0,0,0-7.8-3.2c-4.149,0-6.5,1.579-6.5,4.285,0,2.346,2.075,3.429,6.855,4.376,7.218,1.4,10.872,3.7,10.872,8.8Z" transform="translate(-268 -32.353)" fill="#fff"/>
        <path id="Path_3" data-name="Path 3" d="M402.37,33.94H406.7V64.254H402.37Zm6.8,30.314V59.924h9.8v4.329Z" transform="translate(-362.716 -33.22)" fill="#fff"/>
        <path id="Path_4" data-name="Path 4" d="M507.449,33.94l10.285,18.043V64.254H513.4V51.983L502.58,33.94h4.872Zm21.109,0-9.491,15.818-2.29-4,6.909-11.822h4.872Z" transform="translate(-433.353 -33.22)" fill="#fff"/>
        <path id="Path_5" data-name="Path 5" d="M607.861,62.534h-4.692l-2.93-6.5h-.015l-6.8-14.977-6.8,14.977h-.015l-2.933,6.5H578.99L593.424,31.5l14.434,31.034Z" transform="translate(-487.214 -31.5)" fill="#fff"/>
        <path id="Path_6" data-name="Path 6" d="M709.042,43.637c0,5.684-3.789,10.149-10.2,10.149h-6.407V64.251H688.11V49.457h10.78c3.158,0,5.82-1.623,5.82-5.548s-2.93-5.64-6.088-5.64H688.11V33.94h9.382c7.894,0,11.548,3.969,11.548,9.7Z" transform="translate(-564.131 -33.22)" fill="#fff"/>
        <path id="Path_7" data-name="Path 7" d="M775.94,64.254V33.94h4.329V64.254Z" transform="translate(-626.042 -33.22)" fill="#fff"/>
        <path id="Path_8" data-name="Path 8" d="M364.56,48.6V71.592h4.332V44.35Z" transform="translate(-336.064 -40.558)" fill="#fff"/>
      </g>
      <g id="Group_4" data-name="Group 4" transform="translate(78.352 44.301)">
        <path id="Path_9" data-name="Path 9" d="M265.578,153.847l1.118.035q1.1.035,1.443.035.305,0,2.57-.071l.071.062v.449l-.071.062c-.413.012-.729.03-.953.053a1.108,1.108,0,0,0-.487.136.634.634,0,0,0-.2.46,7.972,7.972,0,0,0-.05,1.006l-.018,2.06v4.146l.009,1.747a12.279,12.279,0,0,0,.053,1.307.854.854,0,0,0,.13.4.669.669,0,0,0,.328.165,7.125,7.125,0,0,0,1.192.1l.071.053v.449l-.071.071q-.044,0-1.576-.053c-.425-.012-.755-.018-.995-.018q-.279,0-2.562.071l-.071-.071v-.449l.071-.053a9.375,9.375,0,0,0,1.11-.089.815.815,0,0,0,.372-.139.724.724,0,0,0,.153-.363,8.261,8.261,0,0,0,.068-1.237l.009-1.889v-4.146l-.018-1.747c-.006-.682-.024-1.118-.05-1.316a.832.832,0,0,0-.124-.4.67.67,0,0,0-.328-.162,7.782,7.782,0,0,0-1.192-.1l-.071-.062v-.449l.071-.062Zm2.624-1.712a.984.984,0,0,1-.717-.292.958.958,0,0,1-.3-.711,1.008,1.008,0,0,1,1.012-1.012.958.958,0,0,1,.711.3.985.985,0,0,1,.292.717.962.962,0,0,1-.292.711A.978.978,0,0,1,268.2,152.136Z" transform="translate(-265.51 -150.12)" fill="#fff"/>
        <path id="Path_10" data-name="Path 10" d="M344.961,175.523l-.08-.08v-.413l.08-.071a6.355,6.355,0,0,0,.873-.062.655.655,0,0,0,.422-.18.848.848,0,0,0,.124-.4c.021-.186.041-.6.062-1.254s.032-1.115.032-1.4v-7.236a1.128,1.128,0,0,0-.165-.676.72.72,0,0,0-.452-.277,6.017,6.017,0,0,0-.977-.068l-.071-.071v-.422l.071-.08q1.235.044,1.62.044.9,0,1.487-.044l2.857,3.707,4.2,5.265q.761.961,1.549,1.818V166.69c0-.215-.012-.673-.032-1.375s-.047-1.145-.077-1.334a.639.639,0,0,0-.156-.381.877.877,0,0,0-.422-.148,6.288,6.288,0,0,0-.838-.059l-.071-.071v-.413l.071-.08q.726.044,2.069.044,1.226,0,1.782-.044l.08.08v.413l-.071.071a6.02,6.02,0,0,0-.915.068.586.586,0,0,0-.4.192,1.024,1.024,0,0,0-.112.4c-.021.174-.041.584-.062,1.237s-.032,1.118-.032,1.4v4.253l.009,2.464q.018,1.208.035,2.426a14.3,14.3,0,0,0-1.549-.375l-.634-.753-1.906-2.328-6.073-7.584v6.87c0,.274.012.764.032,1.47a11.723,11.723,0,0,0,.077,1.281.737.737,0,0,0,.115.31.669.669,0,0,0,.31.156,4.417,4.417,0,0,0,.98.08l.071.071v.422l-.071.071a12.784,12.784,0,0,0-1.505-.062q-1.332,0-2.337.062Z" transform="translate(-321.408 -159.079)" fill="#fff"/>
        <path id="Path_11" data-name="Path 11" d="M458.561,175.093a7.5,7.5,0,0,1-3.178-.664l-.053-.115c.059-.375.1-1.254.136-2.632l.071-.071h.44l.071.071a8.329,8.329,0,0,0,.121,1.4,1.141,1.141,0,0,0,.484.537,3.4,3.4,0,0,0,1.083.46,5.379,5.379,0,0,0,1.366.18,4.024,4.024,0,0,0,1.706-.348,2.678,2.678,0,0,0,1.177-1.024,2.816,2.816,0,0,0,.422-1.517,2.467,2.467,0,0,0-.2-1.03,1.753,1.753,0,0,0-.564-.7,2.6,2.6,0,0,0-.829-.4c-.31-.086-.773-.18-1.387-.283-.6-.094-1.065-.183-1.4-.26a4.832,4.832,0,0,1-1.006-.357,2.716,2.716,0,0,1-.838-.614,2.756,2.756,0,0,1-.537-.915,3.259,3.259,0,0,1-.2-1.16,3.554,3.554,0,0,1,1.166-2.745,4.435,4.435,0,0,1,3.125-1.071,8.4,8.4,0,0,1,1.7.192,6.957,6.957,0,0,1,1.67.57l.062.106a12.092,12.092,0,0,0-.242,2.346l-.08.071h-.466l-.071-.062c-.012-.717-.03-1.169-.053-1.352s-.3-.416-.815-.691a3.568,3.568,0,0,0-1.694-.413,3.369,3.369,0,0,0-1.425.3,2.083,2.083,0,0,0-1,.959,2.852,2.852,0,0,0-.339,1.334,2.1,2.1,0,0,0,.236,1,1.654,1.654,0,0,0,.655.673,2.856,2.856,0,0,0,.829.319c.274.056.732.133,1.369.227a9.431,9.431,0,0,1,2.3.543,2.573,2.573,0,0,1,1.154,1.006,3.066,3.066,0,0,1,.434,1.664,3.924,3.924,0,0,1-1.331,2.984,5.572,5.572,0,0,1-3.352,1.434l-.422.977a2.994,2.994,0,0,1,.546-.053,1.72,1.72,0,0,1,1.142.348,1.136,1.136,0,0,1,.416.915,1.362,1.362,0,0,1-.552,1.083,2.518,2.518,0,0,1-1.635.457,4.908,4.908,0,0,1-1.62-.26l-.035-.106.215-.457.1-.044a3.335,3.335,0,0,0,1.11.2,1.011,1.011,0,0,0,.738-.233.708.708,0,0,0,.236-.519.61.61,0,0,0-.245-.5,1.048,1.048,0,0,0-.667-.192,1.848,1.848,0,0,0-.546.089l-.162-.127.673-1.532Z" transform="translate(-399.312 -158.381)" fill="#fff"/>
        <path id="Path_12" data-name="Path 12" d="M545.58,175.172l-.08-.071v-.466l.08-.071a3.828,3.828,0,0,0,.841-.068.721.721,0,0,0,.336-.233,7.294,7.294,0,0,0,.6-1.142l.941-2.042,2.435-5.516q.691-1.62,1.369-3.243h.581l3.825,8.992.511,1.2c.15.339.322.711.513,1.11a3.351,3.351,0,0,0,.4.708.763.763,0,0,0,.277.165,2.975,2.975,0,0,0,.738.068l.071.071v.466l-.071.071c-.631-.053-1.2-.08-1.712-.08q-1.487.044-2.975.08l-.071-.071v-.466l.071-.071a7.233,7.233,0,0,0,1.254-.086.3.3,0,0,0,.251-.31,1.549,1.549,0,0,0-.124-.519l-1.1-2.733h-5.185l-.977,2.293a2.686,2.686,0,0,0-.26.906.347.347,0,0,0,.242.331,4.145,4.145,0,0,0,1.219.115l.08.071v.466l-.071.071q-1.155-.071-2.024-.071c-.658,0-1.319.024-1.989.071Zm4.084-5.023H554.2l-2.249-5.4Z" transform="translate(-462.872 -158.72)" fill="#fff"/>
        <path id="Path_13" data-name="Path 13" d="M652.34,175.172l-.08-.071v-.466l.08-.071a3.826,3.826,0,0,0,.841-.068.721.721,0,0,0,.336-.233,7.286,7.286,0,0,0,.6-1.142l.941-2.042,2.435-5.516q.691-1.62,1.369-3.243h.581l3.825,8.992.51,1.2c.151.339.322.711.513,1.11a3.345,3.345,0,0,0,.4.708.763.763,0,0,0,.277.165,2.976,2.976,0,0,0,.738.068l.071.071v.466l-.071.071c-.632-.053-1.2-.08-1.712-.08q-1.487.044-2.975.08l-.071-.071v-.466l.071-.071a7.233,7.233,0,0,0,1.254-.086.3.3,0,0,0,.251-.31,1.55,1.55,0,0,0-.124-.519l-1.1-2.733h-5.185l-.977,2.293a2.685,2.685,0,0,0-.26.906.347.347,0,0,0,.242.331,4.144,4.144,0,0,0,1.219.115l.08.071v.466l-.071.071q-1.155-.071-2.025-.071c-.658,0-1.319.024-1.989.071Zm4.084-5.023h4.533l-2.249-5.4Z" transform="translate(-538.126 -158.72)" fill="#fff"/>
        <path id="Path_14" data-name="Path 14" d="M765.006,162.75l.08.08q-.08.806-.08,2.812l-.071.071h-.422l-.071-.08-.1-.823a7.664,7.664,0,0,0-.112-.812.38.38,0,0,0-.13-.215,1.609,1.609,0,0,0-.581-.112c-.328-.03-.7-.044-1.1-.044h-1.694q-.071,2.023-.071,2.337v5.221l.018,1.747c.006.676.024,1.113.05,1.313a.807.807,0,0,0,.124.4.726.726,0,0,0,.328.162,7.2,7.2,0,0,0,1.2.1l.062.053v.449l-.062.071q-2.293-.071-2.562-.071-.288,0-2.553.071l-.071-.071v-.449l.071-.053a9.4,9.4,0,0,0,1.116-.089.8.8,0,0,0,.366-.139.721.721,0,0,0,.156-.363,7.4,7.4,0,0,0,.062-1.237l.018-1.889v-5.22q0-.142-.071-2.337h-1.334q-.823,0-1.425.035c-.4.024-.632.086-.693.183a3.231,3.231,0,0,0-.174.962l-.089.823-.08.08H754.7l-.071-.071c-.012-1.44-.038-2.376-.08-2.812l.08-.08q1.558.071,5.185.071c2.417,0,4.2-.024,5.194-.071Z" transform="translate(-610.229 -159.023)" fill="#fff"/>
      </g>
      <path id="Path_15" data-name="Path 15" d="M368.892,34.589V33.94H364.56v4.645Z" transform="translate(-256.977 -23.925)" fill="#fff"/>
    </g>
  </g>
</svg>
